<?xml version="1.0" encoding="iso-8859-1"?>
<!-- Uploaded to: SVG Repo, www.svgrepo.com, Generator: SVG Repo Mixer Tools -->
<svg fill="#000000" height="800px" width="800px" version="1.1" id="Layer_1" xmlns="http://www.w3.org/2000/svg" xmlns:xlink="http://www.w3.org/1999/xlink" 
	 viewBox="0 0 512 512" xml:space="preserve">
<g>
	<g>
		<path d="M481.615,192.747l-54.479-54.48c-6.707-6.707-15.625-10.4-25.11-10.4c-2.306,0-4.578,0.222-6.794,0.65V41.173
			C395.232,18.47,376.762,0,354.06,0H134.375c-4.648,0-8.414,3.767-8.414,8.414c0,4.647,3.766,8.414,8.414,8.414H354.06
			c13.424,0,24.345,10.921,24.345,24.346v95.692c-0.009,0.008-0.018,0.017-0.027,0.026c-0.497,0.444-0.985,0.9-1.461,1.375
			c0,0-95.944,95.941-95.961,95.958c-3.245,3.245-3.242,8.657,0,11.898c3.19,3.192,8.635,3.265,11.899,0l20.617-20.616l80.9,80.9
			L282.417,418.363l-80.9-80.901l67.543-67.541c3.286-3.286,3.286-8.613,0-11.898c-3.286-3.286-8.612-3.286-11.899,0l-73.492,73.49
			c-0.036,0.036-0.067,0.076-0.102,0.112c-0.061,0.063-0.116,0.128-0.174,0.192c-1.29,1.424-2.071,3.304-2.167,5.223
			c-0.002,0.053-0.015,0.103-0.017,0.156l-3.029,95.828c-0.073,2.322,0.818,4.571,2.459,6.215c1.581,1.581,3.721,2.465,5.95,2.465
			c0.087,0,0.177-0.001,0.266-0.005l95.828-3.029c0.053-0.001,0.103-0.013,0.156-0.017c2-0.103,3.97-0.948,5.414-2.34
			c0.037-0.036,0.077-0.067,0.113-0.103l90.038-90.037v124.652c0,13.425-10.921,24.346-24.345,24.346h-60.687
			c-4.648,0-8.414,3.767-8.414,8.414s3.766,8.414,8.414,8.414h60.687c22.702,0,41.172-18.47,41.172-41.173V329.347l86.382-86.382
			C495.459,229.121,495.459,206.592,481.615,192.747z M195.282,424.599l2.131-67.442l57.847,57.847l7.462,7.462L195.282,424.599z
			 M406.272,294.509l-80.9-80.9l27.224-27.224l80.901,80.9L406.272,294.509z M469.715,231.066l-24.319,24.319l-4.597-4.597
			l-76.303-76.303c0,0,24.312-24.312,24.321-24.321c3.488-3.488,8.278-5.471,13.208-5.471c4.99,0,9.681,1.943,13.209,5.472
			l54.479,54.479C476.999,211.93,476.999,223.782,469.715,231.066z"/>
	</g>
</g>
<g>
	<g>
		<path d="M259.72,495.173H61.175c-13.425,0-24.346-10.921-24.346-24.346V41.173c0-13.425,10.921-24.346,24.346-24.346h39.545
			c4.648,0,8.414-3.767,8.414-8.414c0-4.647-3.766-8.414-8.414-8.414H61.175C38.473,0,20.002,18.47,20.002,41.173v429.654
			C20.002,493.53,38.473,512,61.175,512h198.543c4.648,0,8.415-3.767,8.415-8.414C268.133,498.94,264.367,495.173,259.72,495.173z"
			/>
	</g>
</g>
</svg>