<svg version="1.1" id="Layer_1" xmlns="http://www.w3.org/2000/svg" xmlns:xlink="http://www.w3.org/1999/xlink" x="0px" y="0px"
	 width="100%" viewBox="0 0 500 500" enable-background="new 0 0 500 500" xml:space="preserve">
<path fill="#000000" opacity="1.000000" stroke="none" 
	d="
M334.000000,501.000000 
	C222.666687,501.000000 111.833389,501.000000 1.000059,501.000000 
	C1.000040,334.333405 1.000040,167.666794 1.000020,1.000149 
	C167.666565,1.000099 334.333130,1.000099 500.999756,1.000050 
	C500.999847,167.666519 500.999847,334.333038 500.999939,500.999786 
	C445.500000,501.000000 390.000000,501.000000 334.000000,501.000000 
M260.176636,131.655701 
	C262.265717,130.056427 264.354797,128.457153 266.356720,126.924622 
	C278.588623,134.250732 287.212524,144.632339 294.537476,156.528442 
	C297.596619,153.935760 300.204376,151.725677 303.924347,148.572937 
	C295.381531,139.037994 287.152679,129.853470 279.100159,120.865746 
	C288.305511,117.645027 298.708710,117.359787 309.240570,117.902344 
	C333.728180,119.163849 350.417603,131.819046 357.917206,155.193161 
	C359.521973,160.194687 360.590149,165.368378 361.964264,170.690140 
	C365.052002,170.166565 367.921112,169.680054 371.095154,169.141846 
	C370.308868,165.116669 369.759186,161.514938 368.891815,157.991409 
	C363.589478,136.450912 351.767029,120.177849 330.361115,112.469833 
	C310.334381,105.258453 290.262451,105.656311 270.466919,113.952705 
	C268.801300,114.650772 266.574005,114.916481 264.868683,114.443001 
	C259.606293,112.981880 254.563705,110.663399 249.260651,109.431732 
	C243.241501,108.033760 237.033218,107.450027 230.755157,106.489052 
	C230.755157,110.670609 230.755157,113.750504 230.755157,116.420280 
	C239.413010,118.138870 247.728073,119.789413 256.849579,121.600044 
	C237.217255,139.537704 231.667313,157.043198 233.062042,180.013489 
	C234.309280,200.554596 243.078033,216.754044 261.938690,225.571930 
	C272.800323,230.650009 284.651550,233.940979 296.359772,236.796265 
	C311.368256,240.456390 326.674438,242.940369 340.615906,250.035751 
	C347.993652,253.790604 354.294830,258.768311 358.200073,266.383026 
	C369.584015,288.580292 361.601410,318.034058 340.425293,331.018555 
	C323.136536,341.619476 304.168213,341.938171 284.865265,339.444397 
	C280.432404,338.871735 276.077393,337.696625 270.527466,336.561737 
	C285.026367,327.610077 294.990662,316.350128 302.431580,302.408081 
	C299.458801,300.365662 296.770996,298.519012 293.878571,296.531799 
	C292.151062,299.329681 290.727661,301.742004 289.201935,304.087769 
	C282.272430,314.741821 273.184387,323.090454 262.307068,329.635376 
	C259.527252,331.307983 257.263123,331.330231 255.210129,329.059113 
	C249.796478,323.070435 243.121506,317.679230 239.525330,310.718903 
	C234.270370,300.547974 231.265244,289.214691 227.061127,277.720612 
	C225.099182,277.876984 222.029083,278.121674 218.556137,278.398468 
	C219.628082,289.677277 222.203918,300.059235 226.523376,310.028320 
	C230.941681,320.225464 237.690125,328.650055 247.140152,336.006897 
	C240.935806,337.169647 235.763885,338.138916 230.769257,339.074951 
	C230.769257,342.609833 230.769257,345.703125 230.769257,349.846710 
	C238.975601,347.814850 246.626205,345.722778 254.376404,344.108795 
	C257.096436,343.542389 260.284241,343.471924 262.879059,344.326691 
	C287.516266,352.442535 312.159546,353.908539 336.603607,344.092834 
	C372.832916,329.544678 380.068970,291.952026 368.130585,263.087738 
	C361.808411,247.802216 347.910156,240.834442 333.324097,236.205078 
	C317.999451,231.341263 302.105713,228.300308 286.567383,224.070770 
	C273.998322,220.649460 261.711578,216.455658 253.048935,205.724731 
	C237.283890,186.195679 240.393311,151.201904 260.176636,131.655701 
M165.032074,335.455170 
	C175.411346,341.877289 186.602814,346.043396 198.883575,347.972229 
	C198.883575,344.453522 198.883575,341.316559 198.883575,338.101440 
	C198.253326,337.819183 197.678009,337.432587 197.048813,337.298248 
	C166.221710,330.716064 146.834595,311.438477 136.744247,282.291199 
	C127.996361,257.021790 127.399246,231.023712 131.580872,204.867004 
	C135.170731,182.411972 143.760483,162.114456 159.255402,145.120224 
	C170.130463,133.192886 183.323990,124.829315 198.854095,120.207085 
	C198.854095,116.640335 198.854095,113.356514 198.854095,109.700790 
	C196.693985,110.256752 194.751709,110.637527 192.887558,111.254372 
	C166.226624,120.076416 146.834808,137.540283 134.200806,162.253250 
	C116.529488,196.819550 115.012428,233.481567 122.633270,270.740479 
	C128.092484,297.431000 141.012543,319.777985 165.032074,335.455170 
M293.336853,392.861969 
	C294.495850,393.321045 295.654846,393.780090 297.524750,394.520752 
	C297.524750,390.315033 297.524750,387.081482 297.524750,383.847900 
	C299.623444,386.295715 300.470581,389.053955 301.651581,391.660950 
	C302.091339,392.631622 303.322144,393.870789 304.173706,393.856873 
	C305.077972,393.842041 306.365662,392.656769 306.777344,391.683014 
	C308.086151,388.587280 309.065033,385.352081 310.171417,382.170807 
	C311.010315,384.893433 310.996185,387.363678 311.013458,389.833710 
	C311.044128,394.220032 311.052063,394.219971 314.873108,393.258972 
	C314.873108,386.597961 314.873108,379.965210 314.873108,373.406830 
	C310.782318,371.909485 309.008423,373.656128 308.068176,377.372650 
	C307.226746,380.698425 305.884827,383.897522 304.673584,387.414185 
	C296.131256,373.103302 296.131256,373.103302 293.297699,373.603760 
	C293.297699,379.680573 293.297699,385.823669 293.336853,392.861969 
M370.029572,389.318787 
	C370.029572,384.018799 370.029572,378.718811 370.029572,373.035248 
	C368.468597,373.128967 367.291718,373.199615 365.815857,373.288208 
	C365.815857,377.541992 365.815857,381.440186 365.815857,385.516785 
	C360.618683,381.985779 361.202881,372.855865 352.516876,372.871582 
	C352.516876,380.081818 352.516876,386.844482 352.516876,393.745758 
	C353.897919,393.745758 355.118500,393.745758 356.800995,393.745758 
	C356.800995,389.429108 356.800995,385.386017 356.800995,381.070953 
	C362.161591,384.725891 361.486145,393.701721 370.029572,394.238739 
	C370.029572,392.554535 370.029572,391.409576 370.029572,389.318787 
M242.782578,373.200378 
	C237.153061,375.529358 236.260971,380.212860 236.782913,385.502228 
	C237.358215,391.332367 240.895752,394.400391 246.704346,394.284271 
	C252.179932,394.174835 255.542313,390.983154 256.062317,385.401489 
	C256.908875,376.314056 252.850204,372.317108 242.782578,373.200378 
M125.738770,380.212769 
	C122.904396,373.343628 119.799194,372.122620 108.286911,373.398254 
	C108.286911,380.236176 108.286911,387.080109 108.286911,393.904816 
	C123.283798,394.404999 126.251839,392.187622 125.738770,380.212769 
M336.972595,381.193665 
	C335.372742,381.193665 333.772858,381.193665 331.863312,381.193665 
	C331.976257,379.427277 332.054565,378.202728 332.129913,377.024261 
	C341.018341,376.366669 341.018341,376.366669 340.992767,373.177612 
	C336.585327,373.177612 332.178040,373.177612 327.633972,373.177612 
	C327.633972,380.220520 327.633972,387.044037 327.633972,393.727417 
	C332.590546,393.727417 337.153381,393.727417 342.658295,393.727417 
	C340.119415,388.068054 335.234711,391.670563 332.104248,389.766846 
	C332.104248,388.379517 332.104248,386.833496 332.104248,384.981293 
	C333.494202,384.981293 334.624847,384.981293 335.755493,384.981293 
	C337.058441,384.981293 338.361389,384.981293 339.664337,384.981293 
	C340.000061,384.615173 340.335785,384.249054 340.671509,383.882935 
	C339.718018,382.986847 338.764557,382.090759 336.972595,381.193665 
M144.254303,376.729004 
	C150.828308,376.722443 150.828308,376.722443 150.657791,373.257202 
	C146.234772,373.257202 141.819611,373.257202 137.335571,373.257202 
	C137.335571,380.267578 137.335571,386.999390 137.335571,393.726257 
	C142.187317,393.726257 146.755844,393.726257 151.794418,393.726257 
	C150.045197,387.362610 144.600861,392.240234 141.773849,389.528015 
	C141.773849,388.293915 141.773849,386.771027 141.773849,384.794586 
	C144.669769,384.794586 147.247879,384.794586 150.217239,384.794586 
	C149.248795,378.456696 143.771957,383.090881 141.109894,379.751465 
	C141.717209,378.917542 142.507339,377.832581 144.254303,376.729004 
M203.062668,393.448669 
	C202.254593,392.424377 201.575928,390.692139 200.612778,390.516113 
	C198.259857,390.085999 195.775360,390.375793 193.306076,390.375793 
	C193.306076,388.245636 193.306076,386.811768 193.306076,384.952515 
	C195.264984,384.952515 197.092285,385.144653 198.850662,384.879639 
	C199.887604,384.723358 200.815338,383.842560 201.792191,383.287628 
	C200.751343,382.602448 199.784225,381.542297 198.652420,381.319733 
	C196.943665,380.983734 195.119965,381.232086 193.034103,381.232086 
	C193.241028,379.369598 193.374542,378.167908 193.417389,377.782196 
	C196.499573,375.053131 201.701981,379.330200 203.368271,373.345459 
	C198.099365,373.345459 193.566223,373.345459 189.249878,373.345459 
	C189.249878,380.426453 189.249878,387.147858 189.249878,393.993317 
	C193.861298,393.993317 198.157135,393.993317 203.062668,393.448669 
M267.266327,391.115967 
	C267.089172,395.166321 269.408783,394.101044 271.651031,393.650879 
	C271.807434,390.998352 271.939972,388.749939 272.080353,386.369232 
	C273.612183,386.299347 274.763702,386.224945 275.916321,386.198090 
	C280.116943,386.100128 282.449615,383.892883 282.732727,379.781097 
	C283.000580,375.890533 280.194519,373.235535 275.730103,373.019470 
	C272.990387,372.886902 270.239044,372.994934 267.265686,372.994934 
	C267.265686,379.222382 267.265686,384.704041 267.266327,391.115967 
M164.575409,373.766174 
	C163.123596,373.486877 161.671783,373.207550 159.695343,372.827301 
	C162.263474,380.382141 164.548019,387.102753 166.840744,393.847382 
	C168.687698,393.847382 170.299026,393.847382 172.059769,393.847382 
	C174.372421,387.007904 176.644913,380.287201 178.925751,373.541809 
	C174.757919,372.941376 174.741226,372.935760 173.597015,376.335052 
	C172.315643,380.141846 171.068542,383.960114 169.486420,388.740631 
	C167.726379,383.298431 166.304840,378.902863 164.575409,373.766174 
M384.675537,376.742767 
	C385.122742,378.455231 385.871399,380.152893 385.956146,381.883118 
	C386.149353,385.828369 386.017151,389.789520 386.017151,394.006073 
	C387.628021,393.905975 388.845337,393.830353 390.377808,393.735138 
	C390.377808,388.031952 390.377808,382.617218 390.377808,377.596771 
	C392.137329,375.611389 397.650452,378.814911 395.830933,373.209229 
	C390.459625,373.209229 385.348358,373.209229 380.237091,373.209229 
	C380.027527,373.723389 379.817993,374.237518 379.608429,374.751678 
	C380.992554,375.408020 382.376648,376.064362 384.675537,376.742767 
M225.591156,390.403809 
	C223.162064,390.403809 220.732971,390.403809 217.918579,390.403809 
	C217.918579,384.371552 217.918579,378.791748 217.918579,372.947571 
	C216.290375,373.096954 215.077484,373.208221 213.984390,373.308502 
	C213.984390,380.392975 213.984390,387.103271 213.984390,393.798157 
	C218.526611,393.798157 222.775101,393.798157 227.569260,393.798157 
	C227.101822,392.455383 226.756912,391.464569 225.591156,390.403809 
z"/>
<path fill="#F2F2F2" opacity="1.000000" stroke="none" 
	d="
M259.905060,131.884521 
	C240.393311,151.201904 237.283890,186.195679 253.048935,205.724731 
	C261.711578,216.455658 273.998322,220.649460 286.567383,224.070770 
	C302.105713,228.300308 317.999451,231.341263 333.324097,236.205078 
	C347.910156,240.834442 361.808411,247.802216 368.130585,263.087738 
	C380.068970,291.952026 372.832916,329.544678 336.603607,344.092834 
	C312.159546,353.908539 287.516266,352.442535 262.879059,344.326691 
	C260.284241,343.471924 257.096436,343.542389 254.376404,344.108795 
	C246.626205,345.722778 238.975601,347.814850 230.769257,349.846710 
	C230.769257,345.703125 230.769257,342.609833 230.769257,339.074951 
	C235.763885,338.138916 240.935806,337.169647 247.140152,336.006897 
	C237.690125,328.650055 230.941681,320.225464 226.523376,310.028320 
	C222.203918,300.059235 219.628082,289.677277 218.556137,278.398468 
	C222.029083,278.121674 225.099182,277.876984 227.061127,277.720612 
	C231.265244,289.214691 234.270370,300.547974 239.525330,310.718903 
	C243.121506,317.679230 249.796478,323.070435 255.210129,329.059113 
	C257.263123,331.330231 259.527252,331.307983 262.307068,329.635376 
	C273.184387,323.090454 282.272430,314.741821 289.201935,304.087769 
	C290.727661,301.742004 292.151062,299.329681 293.878571,296.531799 
	C296.770996,298.519012 299.458801,300.365662 302.431580,302.408081 
	C294.990662,316.350128 285.026367,327.610077 270.527466,336.561737 
	C276.077393,337.696625 280.432404,338.871735 284.865265,339.444397 
	C304.168213,341.938171 323.136536,341.619476 340.425293,331.018555 
	C361.601410,318.034058 369.584015,288.580292 358.200073,266.383026 
	C354.294830,258.768311 347.993652,253.790604 340.615906,250.035751 
	C326.674438,242.940369 311.368256,240.456390 296.359772,236.796265 
	C284.651550,233.940979 272.800323,230.650009 261.938690,225.571930 
	C243.078033,216.754044 234.309280,200.554596 233.062042,180.013489 
	C231.667313,157.043198 237.217255,139.537704 256.849579,121.600044 
	C247.728073,119.789413 239.413010,118.138870 230.755157,116.420280 
	C230.755157,113.750504 230.755157,110.670609 230.755157,106.489052 
	C237.033218,107.450027 243.241501,108.033760 249.260651,109.431732 
	C254.563705,110.663399 259.606293,112.981880 264.868683,114.443001 
	C266.574005,114.916481 268.801300,114.650772 270.466919,113.952705 
	C290.262451,105.656311 310.334381,105.258453 330.361115,112.469833 
	C351.767029,120.177849 363.589478,136.450912 368.891815,157.991409 
	C369.759186,161.514938 370.308868,165.116669 371.095154,169.141846 
	C367.921112,169.680054 365.052002,170.166565 361.964264,170.690140 
	C360.590149,165.368378 359.521973,160.194687 357.917206,155.193161 
	C350.417603,131.819046 333.728180,119.163849 309.240570,117.902344 
	C298.708710,117.359787 288.305511,117.645027 279.100159,120.865746 
	C287.152679,129.853470 295.381531,139.037994 303.924347,148.572937 
	C300.204376,151.725677 297.596619,153.935760 294.537476,156.528442 
	C287.212524,144.632339 278.588623,134.250732 266.356720,126.924622 
	C264.354797,128.457153 262.265717,130.056427 259.905060,131.884521 
z"/>
<path fill="#F2F2F2" opacity="1.000000" stroke="none" 
	d="
M164.731995,335.249451 
	C141.012543,319.777985 128.092484,297.431000 122.633270,270.740479 
	C115.012428,233.481567 116.529488,196.819550 134.200806,162.253250 
	C146.834808,137.540283 166.226624,120.076416 192.887558,111.254372 
	C194.751709,110.637527 196.693985,110.256752 198.854095,109.700790 
	C198.854095,113.356514 198.854095,116.640335 198.854095,120.207085 
	C183.323990,124.829315 170.130463,133.192886 159.255402,145.120224 
	C143.760483,162.114456 135.170731,182.411972 131.580872,204.867004 
	C127.399246,231.023712 127.996361,257.021790 136.744247,282.291199 
	C146.834595,311.438477 166.221710,330.716064 197.048813,337.298248 
	C197.678009,337.432587 198.253326,337.819183 198.883575,338.101440 
	C198.883575,341.316559 198.883575,344.453522 198.883575,347.972229 
	C186.602814,346.043396 175.411346,341.877289 164.731995,335.249451 
z"/>
<path fill="#E7E7E7" opacity="1.000000" stroke="none" 
	d="
M293.317261,392.414368 
	C293.297699,385.823669 293.297699,379.680573 293.297699,373.603760 
	C296.131256,373.103302 296.131256,373.103302 304.673584,387.414185 
	C305.884827,383.897522 307.226746,380.698425 308.068176,377.372650 
	C309.008423,373.656128 310.782318,371.909485 314.873108,373.406830 
	C314.873108,379.965210 314.873108,386.597961 314.873108,393.258972 
	C311.052063,394.219971 311.044128,394.220032 311.013458,389.833710 
	C310.996185,387.363678 311.010315,384.893433 310.171417,382.170807 
	C309.065033,385.352081 308.086151,388.587280 306.777344,391.683014 
	C306.365662,392.656769 305.077972,393.842041 304.173706,393.856873 
	C303.322144,393.870789 302.091339,392.631622 301.651581,391.660950 
	C300.470581,389.053955 299.623444,386.295715 297.524750,383.847900 
	C297.524750,387.081482 297.524750,390.315033 297.524750,394.520752 
	C295.654846,393.780090 294.495850,393.321045 293.317261,392.414368 
z"/>
<path fill="#E4E4E4" opacity="1.000000" stroke="none" 
	d="
M370.029572,389.791687 
	C370.029572,391.409576 370.029572,392.554535 370.029572,394.238739 
	C361.486145,393.701721 362.161591,384.725891 356.800995,381.070953 
	C356.800995,385.386017 356.800995,389.429108 356.800995,393.745758 
	C355.118500,393.745758 353.897919,393.745758 352.516876,393.745758 
	C352.516876,386.844482 352.516876,380.081818 352.516876,372.871582 
	C361.202881,372.855865 360.618683,381.985779 365.815857,385.516785 
	C365.815857,381.440186 365.815857,377.541992 365.815857,373.288208 
	C367.291718,373.199615 368.468597,373.128967 370.029572,373.035248 
	C370.029572,378.718811 370.029572,384.018799 370.029572,389.791687 
z"/>
<path fill="#EAEAEA" opacity="1.000000" stroke="none" 
	d="
M243.144470,373.118500 
	C252.850204,372.317108 256.908875,376.314056 256.062317,385.401489 
	C255.542313,390.983154 252.179932,394.174835 246.704346,394.284271 
	C240.895752,394.400391 237.358215,391.332367 236.782913,385.502228 
	C236.260971,380.212860 237.153061,375.529358 243.144470,373.118500 
M250.278595,378.036285 
	C247.331406,375.689667 244.433456,375.699097 242.083725,378.716644 
	C240.061401,381.313690 240.737976,387.551941 242.936081,389.439758 
	C245.586334,391.715851 250.270248,390.778229 251.028397,387.368896 
	C251.638199,384.626709 250.931396,381.591766 250.278595,378.036285 
z"/>
<path fill="#EAEAEA" opacity="1.000000" stroke="none" 
	d="
M125.810219,380.620148 
	C126.251839,392.187622 123.283798,394.404999 108.286911,393.904816 
	C108.286911,387.080109 108.286911,380.236176 108.286911,373.398254 
	C119.799194,372.122620 122.904396,373.343628 125.810219,380.620148 
M121.045929,386.996582 
	C122.624588,378.612427 120.060402,375.768555 112.378036,377.374573 
	C112.378036,381.623718 112.378036,385.872864 112.378036,391.514984 
	C115.654434,390.073059 118.198128,388.953613 121.045929,386.996582 
z"/>
<path fill="#DADADA" opacity="1.000000" stroke="none" 
	d="
M337.391846,381.194153 
	C338.764557,382.090759 339.718018,382.986847 340.671509,383.882935 
	C340.335785,384.249054 340.000061,384.615173 339.664337,384.981293 
	C338.361389,384.981293 337.058441,384.981293 335.755493,384.981293 
	C334.624847,384.981293 333.494202,384.981293 332.104248,384.981293 
	C332.104248,386.833496 332.104248,388.379517 332.104248,389.766846 
	C335.234711,391.670563 340.119415,388.068054 342.658295,393.727417 
	C337.153381,393.727417 332.590546,393.727417 327.633972,393.727417 
	C327.633972,387.044037 327.633972,380.220520 327.633972,373.177612 
	C332.178040,373.177612 336.585327,373.177612 340.992767,373.177612 
	C341.018341,376.366669 341.018341,376.366669 332.129913,377.024261 
	C332.054565,378.202728 331.976257,379.427277 331.863312,381.193665 
	C333.772858,381.193665 335.372742,381.193665 337.391846,381.194153 
z"/>
<path fill="#E2E2E2" opacity="1.000000" stroke="none" 
	d="
M143.775894,376.738312 
	C142.507339,377.832581 141.717209,378.917542 141.109894,379.751465 
	C143.771957,383.090881 149.248795,378.456696 150.217239,384.794586 
	C147.247879,384.794586 144.669769,384.794586 141.773849,384.794586 
	C141.773849,386.771027 141.773849,388.293915 141.773849,389.528015 
	C144.600861,392.240234 150.045197,387.362610 151.794418,393.726257 
	C146.755844,393.726257 142.187317,393.726257 137.335571,393.726257 
	C137.335571,386.999390 137.335571,380.267578 137.335571,373.257202 
	C141.819611,373.257202 146.234772,373.257202 150.657791,373.257202 
	C150.828308,376.722443 150.828308,376.722443 143.775894,376.738312 
z"/>
<path fill="#E5E5E5" opacity="1.000000" stroke="none" 
	d="
M202.757828,393.721008 
	C198.157135,393.993317 193.861298,393.993317 189.249878,393.993317 
	C189.249878,387.147858 189.249878,380.426453 189.249878,373.345459 
	C193.566223,373.345459 198.099365,373.345459 203.368271,373.345459 
	C201.701981,379.330200 196.499573,375.053131 193.417389,377.782196 
	C193.374542,378.167908 193.241028,379.369598 193.034103,381.232086 
	C195.119965,381.232086 196.943665,380.983734 198.652420,381.319733 
	C199.784225,381.542297 200.751343,382.602448 201.792175,383.287598 
	C200.815338,383.842560 199.887604,384.723358 198.850662,384.879639 
	C197.092285,385.144653 195.264984,384.952515 193.306076,384.952515 
	C193.306076,386.811768 193.306076,388.245636 193.306076,390.375793 
	C195.775360,390.375793 198.259857,390.085999 200.612778,390.516113 
	C201.575928,390.692139 202.254593,392.424377 202.757828,393.721008 
z"/>
<path fill="#DFDFDF" opacity="1.000000" stroke="none" 
	d="
M267.265991,390.650818 
	C267.265686,384.704041 267.265686,379.222382 267.265686,372.994934 
	C270.239044,372.994934 272.990387,372.886902 275.730103,373.019470 
	C280.194519,373.235535 283.000580,375.890533 282.732727,379.781097 
	C282.449615,383.892883 280.116943,386.100128 275.916321,386.198090 
	C274.763702,386.224945 273.612183,386.299347 272.080353,386.369232 
	C271.939972,388.749939 271.807434,390.998352 271.651031,393.650879 
	C269.408783,394.101044 267.089172,395.166321 267.265991,390.650818 
M271.768036,378.812622 
	C271.768036,380.078644 271.768036,381.344666 271.768036,384.143555 
	C274.555573,382.620728 276.499054,381.847504 277.992645,380.554626 
	C278.402496,380.199799 277.525757,377.288116 277.136780,377.264832 
	C275.374420,377.159393 273.575348,377.667908 271.768036,378.812622 
z"/>
<path fill="#E8E8E8" opacity="1.000000" stroke="none" 
	d="
M164.729340,374.136749 
	C166.304840,378.902863 167.726379,383.298431 169.486420,388.740631 
	C171.068542,383.960114 172.315643,380.141846 173.597015,376.335052 
	C174.741226,372.935760 174.757919,372.941376 178.925751,373.541809 
	C176.644913,380.287201 174.372421,387.007904 172.059769,393.847382 
	C170.299026,393.847382 168.687698,393.847382 166.840744,393.847382 
	C164.548019,387.102753 162.263474,380.382141 159.695343,372.827301 
	C161.671783,373.207550 163.123596,373.486877 164.729340,374.136749 
z"/>
<path fill="#EAEAEA" opacity="1.000000" stroke="none" 
	d="
M384.218140,376.731750 
	C382.376648,376.064362 380.992554,375.408020 379.608429,374.751678 
	C379.817993,374.237518 380.027527,373.723389 380.237091,373.209229 
	C385.348358,373.209229 390.459625,373.209229 395.830933,373.209229 
	C397.650452,378.814911 392.137329,375.611389 390.377808,377.596771 
	C390.377808,382.617218 390.377808,388.031952 390.377808,393.735138 
	C388.845337,393.830353 387.628021,393.905975 386.017151,394.006073 
	C386.017151,389.789520 386.149353,385.828369 385.956146,381.883118 
	C385.871399,380.152893 385.122742,378.455231 384.218140,376.731750 
z"/>
<path fill="#EBEBEB" opacity="1.000000" stroke="none" 
	d="
M226.001587,390.438782 
	C226.756912,391.464569 227.101822,392.455383 227.569260,393.798157 
	C222.775101,393.798157 218.526611,393.798157 213.984390,393.798157 
	C213.984390,387.103271 213.984390,380.392975 213.984390,373.308502 
	C215.077484,373.208221 216.290375,373.096954 217.918579,372.947571 
	C217.918579,378.791748 217.918579,384.371552 217.918579,390.403809 
	C220.732971,390.403809 223.162064,390.403809 226.001587,390.438782 
z"/>
<path fill="#0C0C0C" opacity="1.000000" stroke="none" 
	d="
M250.543686,378.361511 
	C250.931396,381.591766 251.638199,384.626709 251.028397,387.368896 
	C250.270248,390.778229 245.586334,391.715851 242.936081,389.439758 
	C240.737976,387.551941 240.061401,381.313690 242.083725,378.716644 
	C244.433456,375.699097 247.331406,375.689667 250.543686,378.361511 
z"/>
<path fill="#080808" opacity="1.000000" stroke="none" 
	d="
M120.893875,387.415344 
	C118.198128,388.953613 115.654434,390.073059 112.378036,391.514984 
	C112.378036,385.872864 112.378036,381.623718 112.371445,377.371582 
	C120.060402,375.768555 122.624588,378.612427 120.893875,387.415344 
z"/>
<path fill="#131313" opacity="1.000000" stroke="none" 
	d="
M271.778748,378.384003 
	C273.575348,377.667908 275.374420,377.159393 277.136780,377.264832 
	C277.525757,377.288116 278.402496,380.199799 277.992645,380.554626 
	C276.499054,381.847504 274.555573,382.620728 271.768036,384.143555 
	C271.768036,381.344666 271.768036,380.078644 271.778748,378.384003 
z"/>
</svg>