<?xml version="1.0" encoding="iso-8859-1"?>
<!-- Uploaded to: SVG Repo, www.svgrepo.com, Generator: SVG Repo Mixer Tools -->
<svg fill="#000000" height="800px" width="800px" version="1.1" id="Layer_1" xmlns="http://www.w3.org/2000/svg" xmlns:xlink="http://www.w3.org/1999/xlink" 
	 viewBox="0 0 421 421" xml:space="preserve">
<g>
	<path d="M20.744,159.086l27.2,27.2l21.543-21.543l48.96,48.96l-21.543,21.543l27.2,27.2l21.543-21.543l48.96,48.96l-21.543,21.543
		l27.2,27.2l32.856-32.857l-78.206-78.206c18.263,3.908,37.44,2.562,55.679-4.264l7.712-2.887
		c24.186-9.053,50.723-6.565,72.806,6.822c4.346,2.635,8.393,5.623,12.121,8.911l7.422,7.422
		c10.987,12.47,18.077,28.048,20.174,45.064l11.356,92.154c0.5,4.053,3.948,7.022,7.93,7.022c0.327,0,0.657-0.02,0.989-0.061
		c4.385-0.541,7.502-4.533,6.961-8.918l-11.356-92.154c-0.352-2.856-0.822-5.677-1.406-8.459l21.132,21.132l32.857-32.857
		l-27.2-27.2l-21.543,21.543l-48.96-48.96l21.543-21.543l-27.2-27.2l-21.543,21.543l-48.96-48.96l21.543-21.543l-27.2-27.2
		l-32.856,32.857l81.364,81.364c-18.294-3.884-37.49-2.538-55.584,4.234l-7.712,2.887c-25.322,9.478-52.802,6.395-75.396-8.458
		c-3.822-2.513-7.384-5.293-10.681-8.3l-5.463-5.463c-12.894-14.146-20.531-32.316-21.51-52.101l-4.486-90.581
		c-0.218-4.413-3.978-7.813-8.386-7.595c-4.413,0.219-7.813,3.973-7.595,8.386l4.486,90.581c0.267,5.399,0.96,10.695,2.039,15.858
		l-24.392-24.392L20.744,159.086z"/>
	<path d="M400.5,0h-380c-4.418,0-8,3.582-8,8s3.582,8,8,8h372v170.12c0,4.418,3.582,8,8,8s8-3.582,8-8V8
		C408.5,3.582,404.918,0,400.5,0z"/>
	<path d="M400.5,405h-372V254.12c0-4.418-3.582-8-8-8s-8,3.582-8,8V413c0,4.418,3.582,8,8,8h380c4.418,0,8-3.582,8-8
		S404.918,405,400.5,405z"/>
</g>
</svg>