<?xml version="1.0" encoding="iso-8859-1"?>
<!-- Uploaded to: SVG Repo, www.svgrepo.com, Generator: SVG Repo Mixer Tools -->
<!DOCTYPE svg PUBLIC "-//W3C//DTD SVG 1.1//EN" "http://www.w3.org/Graphics/SVG/1.1/DTD/svg11.dtd">
<svg version="1.1" id="Capa_1" xmlns="http://www.w3.org/2000/svg" xmlns:xlink="http://www.w3.org/1999/xlink" 
	 width="800px" height="800px" viewBox="0 0 394.611 394.611"
	 xml:space="preserve">
<g>
	<g>
		<g>
			<g>
				<path style="fill:#030303;" d="M197.303,394.514c-5.152,0-10.006-2.001-13.666-5.648L5.661,210.886
					C2.067,207.295,0,202.314,0,197.22c0-5.166,2.007-10.018,5.661-13.672L183.637,5.578c7.308-7.302,20.025-7.313,27.334,0
					l177.979,177.97c3.597,3.605,5.66,8.589,5.66,13.672c0,5.095-2.063,10.075-5.66,13.666L210.972,388.854
					C207.301,392.513,202.455,394.514,197.303,394.514z M197.309,11.619c-2.035,0-3.951,0.792-5.392,2.238L13.941,191.822
					c-1.441,1.438-2.23,3.354-2.23,5.392c0,2.007,0.812,3.969,2.23,5.381l177.97,177.979c2.882,2.87,7.894,2.893,10.798-0.012
					l177.968-177.962c1.418-1.418,2.236-3.38,2.236-5.387c0-2.01-0.818-3.977-2.242-5.392L202.695,13.857
					C201.257,12.417,199.342,11.619,197.309,11.619z"/>
			</g>
		</g>
		<g>
			<path style="fill:#030303;" d="M144.137,277.998c-10.667,0-19.344-8.674-19.344-19.344v-85.39
				c0-10.661,8.677-19.338,19.344-19.338h59.556l-4.503-4.503c-7.542-7.542-7.542-19.801,0-27.344
				c7.299-7.313,20.062-7.313,27.346,0l37.603,37.602c7.547,7.531,7.547,19.798,0.011,27.338l-34.828,34.84
				c-7.331,7.318-19.996,7.307-27.338,0.011c-7.536-7.536-7.542-19.802-0.012-27.355l1.913-1.916h-40.406v66.055
				C163.479,269.324,154.801,277.998,144.137,277.998z M144.137,165.637c-4.208,0-7.634,3.419-7.634,7.627v85.39
				c0,4.214,3.425,7.634,7.634,7.634c4.211,0,7.63-3.42,7.63-7.634v-77.765h80.407l-21.923,21.9c-2.962,2.979-2.974,7.822,0,10.79
				c2.893,2.864,7.885,2.888,10.795-0.006l34.823-34.825c2.974-2.971,2.968-7.806-0.012-10.781l-37.602-37.607
				c-2.87-2.888-7.902-2.888-10.784,0c-2.979,2.973-2.979,7.811,0,10.784l24.496,24.493H144.137z"/>
		</g>
	</g>
</g>
</svg>