<?xml version="1.0" ?>

<!-- Uploaded to: SVG Repo, www.svgrepo.com, Generator: SVG Repo Mixer Tools -->
<svg width="800px" height="800px" viewBox="0 0 281.25 281.25" id="svg2" version="1.1" xml:space="preserve" xmlns="http://www.w3.org/2000/svg" xmlns:cc="http://creativecommons.org/ns#" xmlns:dc="http://purl.org/dc/elements/1.1/" xmlns:rdf="http://www.w3.org/1999/02/22-rdf-syntax-ns#" xmlns:svg="http://www.w3.org/2000/svg">

<defs id="defs4"/>

<g id="layer1" transform="translate(6693.6064,-3994.3706)">

<path d="m -6648.1554,4034.2912 a 4.6879687,4.6879687 0 0 0 -4.6875,4.6875 v 192.0336 a 4.6879687,4.6879687 0 0 0 4.6875,4.6875 h 190.3492 a 4.6879687,4.6879687 0 0 0 4.6875,-4.6875 v -192.0336 a 4.6879687,4.6879687 0 0 0 -4.6875,-4.6875 z m 4.6875,9.375 h 180.9742 v 129.6954 l -48.4168,-46.3806 a 4.6879687,4.6879687 0 0 0 -3.327,-1.3019 4.6879687,4.6879687 0 0 0 -3.2794,1.4227 l -28.4125,29.2768 -27.9144,-27.4604 a 4.6879687,4.6879687 0 0 0 -3.1842,-1.344 4.6879687,4.6879687 0 0 0 -3.2373,1.2012 l -63.2026,56.8799 z m 95.4584,23.2965 c -13.386,0 -24.3383,10.9524 -24.3384,24.3383 1e-4,13.386 10.9524,24.3384 24.3384,24.3384 13.3861,0 24.3384,-10.9524 24.3384,-24.3384 0,-13.386 -10.9523,-24.3384 -24.3384,-24.3383 z m 0,9.375 c 8.3195,0 14.9634,6.6439 14.9634,14.9633 0,8.3194 -6.6439,14.9634 -14.9634,14.9634 -8.3194,0 -14.9633,-6.644 -14.9634,-14.9634 1e-4,-8.3193 6.644,-14.9633 14.9634,-14.9633 z m 33.9771,60.6353 51.5387,49.3726 v 39.9792 h -12.3322 l -64.422,-63.3728 z m -63.241,1.7231 28.1543,27.6965 60.9229,59.9322 h -155.2717 v -28.0535 z" id="rect5460" style="color:#000000;fill:#3d3d3d;fill-opacity:1;fill-rule:evenodd;stroke-linecap:round;stroke-linejoin:round;-inkscape-stroke:none"/>

</g>

</svg>